<?xml version="1.0" encoding="utf-8"?>
<!-- Generator: Adobe Illustrator 24.2.3, SVG Export Plug-In . SVG Version: 6.00 Build 0)  -->
<svg version="1.1"
	 id="Layer_1" xmlns:cc="http://creativecommons.org/ns#" xmlns:dc="http://purl.org/dc/elements/1.1/" xmlns:inkscape="http://www.inkscape.org/namespaces/inkscape" xmlns:rdf="http://www.w3.org/1999/02/22-rdf-syntax-ns#" xmlns:sodipodi="http://sodipodi.sourceforge.net/DTD/sodipodi-0.dtd" xmlns:svg="http://www.w3.org/2000/svg"
	 xmlns="http://www.w3.org/2000/svg" xmlns:xlink="http://www.w3.org/1999/xlink" x="0px" y="0px" viewBox="0 0 100 125"
	 style="enable-background:new 0 0 100 125;" xml:space="preserve">
<style type="text/css">
	.st0{fill:#FFFFFF;}
</style>
<g transform="translate(0,-952.36218)">
	<path class="st0" d="M50,972.9c-23.2,0-42,18.8-42,42s18.8,42,42,42s42-18.8,42-42C92,991.7,73.2,972.9,50,972.9z M50,978.9
		c19.9,0,36,16.1,36,36s-16.1,36-36,36s-36-16.1-36-36C14,994.9,30.1,978.9,50,978.9z M42.1,992.9c-1.3,0-2.5,0.4-3.6,1
		c-2.1,1.3-3.4,3.7-3.5,6.4c0,0,0,0,0,0.1v28.8c0,0,0,0,0,0.1c0.1,2.7,1.4,5.1,3.5,6.4s5,1.5,7.3,0.1c0,0,0,0,0.1,0l23.5-14.5
		c2.2-1.3,3.6-3.8,3.6-6.5c0-2.7-1.4-5.1-3.6-6.5l-23.5-14.5c0,0,0,0-0.1-0.1C44.7,993.2,43.3,992.9,42.1,992.9z M42.2,998.9
		c0.2,0,0.4,0,0.7,0.2l23.4,14.4c0.4,0.2,0.7,0.7,0.7,1.4c0,0.7-0.3,1.1-0.7,1.4l-23.5,14.5c-0.5,0.3-0.8,0.2-1.1,0
		c-0.3-0.2-0.7-0.6-0.7-1.4v-0.1v-28.7v-0.1c0-0.8,0.4-1.2,0.7-1.4C41.9,998.9,42,998.9,42.2,998.9L42.2,998.9z"/>
</g>
</svg>
