<?xml version="1.0" encoding="utf-8"?>
<!-- Generator: Adobe Illustrator 24.2.3, SVG Export Plug-In . SVG Version: 6.00 Build 0)  -->
<svg version="1.1" id="Layer_1" xmlns="http://www.w3.org/2000/svg" xmlns:xlink="http://www.w3.org/1999/xlink" x="0px" y="0px"
	 viewBox="0 0 32 40" style="enable-background:new 0 0 32 40;" xml:space="preserve">
<path d="M14.9,0C6.7,0,0,6.7,0,14.9s6.7,14.9,14.9,14.9c3.7,0,7.1-1.4,9.7-3.6l5.5,5.5c0.2,0.2,0.5,0.3,0.8,0.3
	c0.6,0,1.1-0.5,1.1-1.1c0-0.3-0.1-0.6-0.3-0.8l-5.5-5.5c2.2-2.6,3.6-6,3.6-9.7C29.7,6.7,23,0,14.9,0L14.9,0z M14.9,2.3
	c7,0,12.6,5.6,12.6,12.6s-5.6,12.6-12.6,12.6S2.3,21.8,2.3,14.9S7.9,2.3,14.9,2.3z"/>
</svg>
